<svg width="26" height="26" viewBox="0 0 26 26" fill="none" xmlns="http://www.w3.org/2000/svg">
<path d="M12.989 2.1665C7.009 2.1665 2.1665 7.01984 2.1665 12.9998C2.1665 18.9798 7.009 23.8332 12.989 23.8332C18.9798 23.8332 23.8332 18.9798 23.8332 12.9998C23.8332 7.01984 18.9798 2.1665 12.989 2.1665ZM12.9998 21.6665C8.2115 21.6665 4.33317 17.7882 4.33317 12.9998C4.33317 8.2115 8.2115 4.33317 12.9998 4.33317C17.7882 4.33317 21.6665 8.2115 21.6665 12.9998C21.6665 17.7882 17.7882 21.6665 12.9998 21.6665ZM13.5415 7.58317H11.9165V14.0832L17.604 17.4957L18.4165 16.1632L13.5415 13.2707V7.58317Z" fill="#1B6EB8"/>
</svg>
