<svg width="26" height="31" viewBox="0 0 26 31" fill="none" xmlns="http://www.w3.org/2000/svg">
<path d="M14.3 9.29753C15.3343 9.29753 16.3263 9.76587 17.0577 10.5995C17.7891 11.4332 18.2 12.5639 18.2 13.7428C18.2 14.1358 18.337 14.5127 18.5808 14.7906C18.8245 15.0685 19.1552 15.2246 19.5 15.2246C19.8448 15.2246 20.1754 15.0685 20.4192 14.7906C20.663 14.5127 20.8 14.1358 20.8 13.7428C20.8 11.7779 20.1152 9.89342 18.8962 8.50399C17.6772 7.11456 16.0239 6.33398 14.3 6.33398C13.9552 6.33398 13.6246 6.4901 13.3808 6.76799C13.137 7.04587 13 7.42277 13 7.81576C13 8.20875 13.137 8.58564 13.3808 8.86353C13.6246 9.14141 13.9552 9.29753 14.3 9.29753Z" fill="#1B6EB8"/>
<path d="M14.3 3.36982C16.7135 3.36982 19.0281 4.46264 20.7347 6.40786C22.4412 8.35308 23.4 10.9914 23.4 13.7423C23.4 14.1353 23.537 14.5122 23.7808 14.7901C24.0246 15.068 24.3552 15.2241 24.7 15.2241C25.0448 15.2241 25.3754 15.068 25.6192 14.7901C25.863 14.5122 26 14.1353 26 13.7423C26 10.2054 24.7673 6.8133 22.5731 4.3123C20.379 1.8113 17.403 0.40625 14.3 0.40625C13.9552 0.40625 13.6246 0.562366 13.3808 0.840255C13.137 1.11814 13 1.49504 13 1.88804C13 2.28103 13.137 2.65793 13.3808 2.93582C13.6246 3.21371 13.9552 3.36982 14.3 3.36982ZM25.675 21.0179C25.6035 20.78 25.4801 20.5668 25.3163 20.3983C25.1526 20.2298 24.9539 20.1116 24.739 20.0547L16.939 18.0247C16.7273 17.97 16.5069 17.9766 16.298 18.0439C16.0891 18.1112 15.8983 18.237 15.743 18.41C15.561 18.6026 15.548 18.6174 14.703 20.4548C11.8992 18.9822 9.65249 16.4108 8.372 13.2089C10.023 12.2605 10.036 12.2605 10.205 12.0383C10.3567 11.8613 10.4671 11.6438 10.5262 11.4057C10.5852 11.1676 10.591 10.9164 10.543 10.675L8.762 1.88804C8.71214 1.64309 8.60841 1.41664 8.46059 1.22999C8.31276 1.04335 8.12569 0.902652 7.917 0.82115C7.61341 0.697554 7.2999 0.608218 6.981 0.554429C6.65243 0.467589 6.31713 0.417955 5.98 0.40625C4.394 0.40625 2.87297 1.12439 1.7515 2.40267C0.630034 3.68096 0 5.4147 0 7.22247C0.00687949 13.2722 2.11833 19.0719 5.87132 23.3496C9.62431 27.6274 14.7125 30.0342 20.02 30.042C20.8053 30.042 21.5829 29.8657 22.3084 29.5231C23.034 29.1806 23.6932 28.6785 24.2485 28.0456C24.8038 27.4126 25.2443 26.6612 25.5448 25.8342C25.8453 25.0072 26 24.1209 26 23.2258C26.0004 22.8486 25.9743 22.472 25.922 22.0996C25.8674 21.7316 25.7847 21.3696 25.675 21.0179ZM20.02 27.0784C15.401 27.0745 10.9721 24.9813 7.706 21.2584C4.43986 17.5355 2.60344 12.4874 2.6 7.22247C2.60342 6.20189 2.96063 5.22422 3.59376 4.50255C4.22689 3.78088 5.08462 3.37373 5.98 3.36982H6.409L7.8 10.2453L7.098 10.6602C5.98 11.327 5.096 11.8605 5.564 13.0163C6.32609 15.4754 7.5592 17.7102 9.17375 19.5582C10.7883 21.4062 12.7437 22.821 14.898 23.6999C15.99 24.2037 16.419 23.2702 17.004 21.9811L17.381 21.1661L23.4 22.7368V23.2258C23.3966 24.2464 23.0394 25.224 22.4062 25.9457C21.7731 26.6674 20.9154 27.0745 20.02 27.0784Z" fill="#1B6EB8"/>
</svg>
