<svg width="26" height="26" viewBox="0 0 26 26" fill="none" xmlns="http://www.w3.org/2000/svg">
<path fill-rule="evenodd" clip-rule="evenodd" d="M5.0375 18.2C5.11318 18.0991 5.21132 18.0172 5.32414 17.9608C5.43696 17.9044 5.56136 17.875 5.6875 17.875H9.75C9.96549 17.875 10.1722 17.9606 10.3245 18.113C10.4769 18.2653 10.5625 18.472 10.5625 18.6875C10.5625 18.903 10.4769 19.1097 10.3245 19.262C10.1722 19.4144 9.96549 19.5 9.75 19.5H6.09375L2.4375 24.375H23.5625L19.9062 19.5H16.25C16.0345 19.5 15.8278 19.4144 15.6755 19.262C15.5231 19.1097 15.4375 18.903 15.4375 18.6875C15.4375 18.472 15.5231 18.2653 15.6755 18.113C15.8278 17.9606 16.0345 17.875 16.25 17.875H20.3125C20.4386 17.875 20.563 17.9044 20.6759 17.9608C20.7887 18.0172 20.8868 18.0991 20.9625 18.2L25.8375 24.7C25.928 24.8207 25.9832 24.9643 25.9967 25.1145C26.0103 25.2648 25.9817 25.4159 25.9142 25.5509C25.8467 25.6858 25.743 25.7993 25.6147 25.8787C25.4863 25.958 25.3384 26 25.1875 26H0.8125C0.661609 26 0.513699 25.958 0.385344 25.8787C0.256988 25.7993 0.153259 25.6858 0.0857783 25.5509C0.0182978 25.4159 -0.0102674 25.2648 0.00328344 25.1145C0.0168343 24.9643 0.0719658 24.8207 0.1625 24.7L5.0375 18.2Z" fill="#1B6EB8"/>
<path fill-rule="evenodd" clip-rule="evenodd" d="M6.5 6.49989C6.50012 5.249 6.86117 4.02472 7.53983 2.97395C8.21849 1.92317 9.18593 1.09054 10.3261 0.575959C11.4662 0.0613784 12.7306 -0.113292 13.9676 0.072908C15.2045 0.259108 16.3615 0.798268 17.2996 1.62569C18.2377 2.45312 18.9171 3.53366 19.2564 4.73766C19.5956 5.94166 19.5803 7.21798 19.2121 8.41346C18.844 9.60895 18.1387 10.6728 17.1809 11.4774C16.2232 12.282 15.0536 12.7931 13.8125 12.9495V21.9374C13.8125 22.1529 13.7269 22.3595 13.5745 22.5119C13.4222 22.6643 13.2155 22.7499 13 22.7499C12.7845 22.7499 12.5779 22.6643 12.4255 22.5119C12.2731 22.3595 12.1875 22.1529 12.1875 21.9374V12.9511C10.6161 12.7532 9.17099 11.9882 8.12373 10.8C7.07646 9.61182 6.49906 8.08212 6.5 6.49826V6.49989Z" fill="#1B6EB8"/>
</svg>
